<?xml version="1.0" encoding="utf-8"?>
<!-- Generator: Adobe Illustrator 24.2.1, SVG Export Plug-In . SVG Version: 6.00 Build 0)  -->
<svg version="1.1" id="Capa_1" xmlns="http://www.w3.org/2000/svg" xmlns:xlink="http://www.w3.org/1999/xlink" x="0px" y="0px"
	 viewBox="0 0 512 512" style="enable-background:new 0 0 512 512;" xml:space="preserve">
<style type="text/css">
	.st0{fill:#F9EECF;}
	.st1{fill:#F5B65D;}
	.st2{fill:#994122;}
	.st3{fill:#F3D373;}
	.st4{fill:#EBAE56;}
	.st5{fill:#2CAC8D;}
	.st6{fill:#E43950;}
	.st7{fill:#EA5569;}
	.st8{fill:#FD8E82;}
	.st9{fill:#FD7C66;}
	.st10{fill:#FFA799;}
	.st11{fill:#F9EECF;stroke:#000000;stroke-width:8;stroke-miterlimit:10;}
	.st12{fill:#F5B65D;stroke:#000000;stroke-width:8;stroke-miterlimit:10;}
	.st13{fill:#994122;stroke:#000000;stroke-width:8;stroke-miterlimit:10;}
	.st14{fill:#F3D373;stroke:#000000;stroke-width:8;stroke-miterlimit:10;}
	.st15{fill:#EBAE56;stroke:#000000;stroke-width:8;stroke-miterlimit:10;}
	.st16{fill:#2CAC8D;stroke:#000000;stroke-width:8;stroke-miterlimit:10;}
	.st17{fill:#E43950;stroke:#000000;stroke-width:8;stroke-miterlimit:10;}
	.st18{fill:#EA5569;stroke:#000000;stroke-width:8;stroke-miterlimit:10;}
	.st19{fill:#FD8E82;stroke:#000000;stroke-width:8;stroke-miterlimit:10;}
	.st20{fill:#FD7C66;stroke:#000000;stroke-width:8;stroke-miterlimit:10;}
	.st21{fill:#FFA799;stroke:#000000;stroke-width:8;stroke-miterlimit:10;}
</style>
<path class="st0" d="M506.8,261.6c0,138.3-112.1,250.4-250.4,250.4S6,399.9,6,261.6S118.1,11.2,256.4,11.2S506.8,123.3,506.8,261.6z
	"/>
<path class="st1" d="M220.3,290.7c0,5.6-4.6,10.2-10.2,10.2s-10.2-4.6-10.2-10.2s4.6-10.2,10.2-10.2S220.3,285,220.3,290.7z
	 M267.6,466.9c-5.6,0-10.2,4.6-10.2,10.2s4.6,10.2,10.2,10.2s10.2-4.6,10.2-10.2S273.3,466.9,267.6,466.9z"/>
<path class="st2" d="M88.2,175.3c0,5.6-4.6,10.2-10.2,10.2s-10.2-4.6-10.2-10.2s4.6-10.2,10.2-10.2
	C83.6,165.1,88.2,169.7,88.2,175.3z M399.7,424.8c-5.6,0-10.2,4.6-10.2,10.2s4.6,10.2,10.2,10.2s10.2-4.6,10.2-10.2
	S405.3,424.8,399.7,424.8z"/>
<path class="st3" d="M253.9,20.8c31.7,31.7,3.6,65.3-34.5,103.4c-38.1,38.1-71.6,66.2-103.4,34.5S89.5,70.3,127.6,32.3
	C165.6-5.8,222.2-10.9,253.9,20.8z"/>
<path class="st4" d="M282.9,153.9c3.1,0.1,5.2,3.4,3.6,6.1c0,0,0,0,0,0.1c-3.5,6.3-8,12.3-13.5,17.7c-5.7,5.7-12,10.4-18.6,14
	c-9.6,5.2-21.4,3.3-29.2-4.4c0,0,0,0-0.1-0.1l-35.4-35.4c-14.9,9.5-30,10.2-43.6-3.4c-22.5-22.5-18.8-62.5,8.1-89.5
	s67-30.6,89.5-8.1c19,19,8.8,40.2-11.5,62.2l33.5,33.5c0.1,0.1,0.1,0.1,0.2,0.2C270.6,151.4,276.7,153.8,282.9,153.9z"/>
<path class="st3" d="M225,72.3c0.1,0.1,0.1,0.1,0.2,0.2l57.4,57.4c0.1,0.1,0.1,0.1,0.2,0.2c7.6,7.6,9.4,19.4,4.4,28.8
	c-0.1,0.1-0.1,0.2-0.2,0.3c-2.4,4.5-6.1,8.1-10.6,10.6c-0.1,0.1-0.2,0.1-0.3,0.2c-9.5,5.1-21.2,3.2-28.8-4.4
	c-0.1-0.1-0.1-0.1-0.2-0.2l-57.4-57.4c-0.1-0.1-0.1-0.1-0.2-0.2c-7.6-7.6-9.4-19.3-4.4-28.8c0.1-0.1,0.1-0.2,0.2-0.3
	c2.4-4.5,6.1-8.2,10.6-10.6c0.1-0.1,0.2-0.1,0.3-0.2C205.7,62.9,217.4,64.8,225,72.3z"/>
<path class="st5" d="M69.3,255.9c7.7-2.5,14.1-7.9,17.8-15.1c8.7-17,23.6-30.8,43-37.7c8.3-2.9,17.5,1.7,19.9,10.4
	c2.1,7.7-2.3,15.9-9.8,18.6c-0.5,0.2-1,0.4-1.5,0.6c-17.1,6.7-24.1,27.5-14.7,43.2c2.6,4.4,3.5,8.9,2.1,12.9
	c-1.8,5-70.9-13.9-67.5-23.6C60.1,260.8,64,257.6,69.3,255.9z"/>
<path class="st6" d="M358,81.8c0,5.6-4.6,10.2-10.2,10.2c-5.6,0-10.2-4.6-10.2-10.2s4.6-10.2,10.2-10.2
	C353.4,71.5,358,76.1,358,81.8z M237,434.2c-43.8,7.4-157.4,1-140.5-144.3c0.6-4.9-2.1-9.5-6.6-11.6c0,0-0.1,0-0.1,0
	c-4.8-2.3-8.6-5.9-11.3-10.2c-5.3-8.5-16.4-11.8-25.6-7.7c-11.1,4.9-20.4,14.3-26,29.4c-2.6,7.2-4.4,14.5-5.4,21.9
	c-2.8,21,1.1,42.3,10.5,61.3c9.9,19.9,22.4,38.3,37,54.8c10.8,12.2,24.1,22,38.8,29.1c0,0,0.1,0,0.1,0
	c65.8,31.5,108.5,9.9,133.1-14.8C244.2,438.9,241.4,433.4,237,434.2z"/>
<path class="st7" d="M89.8,278.2c7,3.4,14.8,3.4,22.1,0.7c8.5-3.1,18.1,0.1,23.4,7.5c7.1,9.9,10,21.3,6.1,32.4
	c-10.6,30.1,7.1,67.6,37.7,82.2c27,12.9,57.5,9.6,80.6-6.1c5-3.4,11.4,2.1,8.6,7.5c-0.1,0.1-8.4,20.9-27.3,39.7
	c-42.3,22.5-98.6,3.6-127.4-31.7C50.6,333.3,85,276,89.8,278.2z"/>
<path class="st8" d="M472,276c3.9,22.5-1.6,64.4-33.9,96.7c-43.9,43.9-115,43.9-158.9,0c-40.7-40.7-43.6-104.7-9-148.8l39.7-39.7
	c31-31,80.9-31.6,112.6-1.7l26.7-26.7c12.4-12.4,12.4-32.5,0-44.8c-9.1-9.1-23.9-9.1-33,0c-6.5,6.5-6.5,17,0,23.5
	c4.4,4.4,11.5,4.4,15.9,0c4-4,10.5-4,14.5,0c4,4,4,10.5,0,14.5c-12.4,12.4-32.5,12.4-44.8,0c-14.4-14.4-14.4-37.9,0-52.4
	c17.1-17.1,44.8-17.1,61.9,0c20.3,20.3,20.3,53.4,0,73.7L353.8,280.1c-31.8,31.8,14,80.8,47.6,51c9.3-8.3,33.2-34,48.2-55.1
	c-13.9-2.9-24.4-15.2-24.4-30c0-5.6,4.6-10.2,10.2-10.2c10.7,0,20.1,5.4,25.5,13.7c5.5-8.3,14.9-13.7,25.6-13.7
	c5.6,0,10.2,4.6,10.2,10.2C496.8,260.9,486.1,273.3,472,276z"/>
<path class="st9" d="M449.3,359.7c-3.3,4.4-7.1,8.8-11.2,13c-43.9,43.9-115,43.9-158.9,0c-40.7-40.7-43.6-104.7-9-148.8
	c3.5-3.5,9.3,0.3,7.5,4.9c-15.6,40.2-7.1,87.6,25.3,120.1C342.9,388.8,405.3,392.4,449.3,359.7z"/>
<path class="st10" d="M294.5,385.6c-5.4-3.8-25.6-16.7-37.1-43.3c12.6,12.9,74.4,13.9,95.9-13.4c7.7,7.4,18.5,12.1,29.7,11.1
	C379,346.2,347.7,387.1,294.5,385.6z M428.4,302.6c-9.1,10.6-18.1,20-24,25.7c5.8,29.9-22.1,60.7-41.4,77.3
	c23.3,1,47.7-8.3,64.7-23.7C438,357.3,438.2,325.5,428.4,302.6z M346.3,318.5c-4.3-9.3-4.6-20.4,1.4-30.6
	c-13.1,0.3-70.2-26.3-70-71.5c0,0-17.9,14.6-24.3,37.2C267.4,291.4,303.7,318.4,346.3,318.5z M379.5,254.5
	c-25.5-25.5-28.2-65.3-8.1-93.9c-12.9-0.7-26,1.7-37.9,7.2c-13,36.6-4.8,79.1,24.4,108.3L379.5,254.5z"/>
<path class="st11" d="M506.8,261.6c0,138.3-112.1,250.4-250.4,250.4S6,399.9,6,261.6S118.1,11.2,256.4,11.2S506.8,123.3,506.8,261.6
	z"/>
<path class="st12" d="M220.3,290.7c0,5.6-4.6,10.2-10.2,10.2s-10.2-4.6-10.2-10.2s4.6-10.2,10.2-10.2S220.3,285,220.3,290.7z
	 M267.6,466.9c-5.6,0-10.2,4.6-10.2,10.2s4.6,10.2,10.2,10.2s10.2-4.6,10.2-10.2S273.3,466.9,267.6,466.9z"/>
<path class="st13" d="M88.2,175.3c0,5.6-4.6,10.2-10.2,10.2s-10.2-4.6-10.2-10.2s4.6-10.2,10.2-10.2
	C83.6,165.1,88.2,169.7,88.2,175.3z M399.7,424.8c-5.6,0-10.2,4.6-10.2,10.2s4.6,10.2,10.2,10.2s10.2-4.6,10.2-10.2
	S405.3,424.8,399.7,424.8z"/>
<path class="st14" d="M253.9,20.8c31.7,31.7,3.6,65.3-34.5,103.4c-38.1,38.1-71.6,66.2-103.4,34.5S89.5,70.3,127.6,32.3
	C165.6-5.8,222.2-10.9,253.9,20.8z"/>
<path class="st15" d="M282.9,153.9c3.1,0.1,5.2,3.4,3.6,6.1c0,0,0,0,0,0.1c-3.5,6.3-8,12.3-13.5,17.7c-5.7,5.7-12,10.4-18.6,14
	c-9.6,5.2-21.4,3.3-29.2-4.4c0,0,0,0-0.1-0.1l-35.4-35.4c-14.9,9.5-30,10.2-43.6-3.4c-22.5-22.5-18.8-62.5,8.1-89.5
	s67-30.6,89.5-8.1c19,19,8.8,40.2-11.5,62.2l33.5,33.5c0.1,0.1,0.1,0.1,0.2,0.2C270.6,151.4,276.7,153.8,282.9,153.9z"/>
<path class="st14" d="M225,72.3c0.1,0.1,0.1,0.1,0.2,0.2l57.4,57.4c0.1,0.1,0.1,0.1,0.2,0.2c7.6,7.6,9.4,19.4,4.4,28.8
	c-0.1,0.1-0.1,0.2-0.2,0.3c-2.4,4.5-6.1,8.1-10.6,10.6c-0.1,0.1-0.2,0.1-0.3,0.2c-9.5,5.1-21.2,3.2-28.8-4.4
	c-0.1-0.1-0.1-0.1-0.2-0.2l-57.4-57.4c-0.1-0.1-0.1-0.1-0.2-0.2c-7.6-7.6-9.4-19.3-4.4-28.8c0.1-0.1,0.1-0.2,0.2-0.3
	c2.4-4.5,6.1-8.2,10.6-10.6c0.1-0.1,0.2-0.1,0.3-0.2C205.7,62.9,217.4,64.8,225,72.3z"/>
<path class="st16" d="M69.3,255.9c7.7-2.5,14.1-7.9,17.8-15.1c8.7-17,23.6-30.8,43-37.7c8.3-2.9,17.5,1.7,19.9,10.4
	c2.1,7.7-2.3,15.9-9.8,18.6c-0.5,0.2-1,0.4-1.5,0.6c-17.1,6.7-24.1,27.5-14.7,43.2c2.6,4.4,3.5,8.9,2.1,12.9
	c-1.8,5-70.9-13.9-67.5-23.6C60.1,260.8,64,257.6,69.3,255.9z"/>
<path class="st17" d="M358,81.8c0,5.6-4.6,10.2-10.2,10.2c-5.6,0-10.2-4.6-10.2-10.2s4.6-10.2,10.2-10.2
	C353.4,71.5,358,76.1,358,81.8z M237,434.2c-43.8,7.4-157.4,1-140.5-144.3c0.6-4.9-2.1-9.5-6.6-11.6c0,0-0.1,0-0.1,0
	c-4.8-2.3-8.6-5.9-11.3-10.2c-5.3-8.5-16.4-11.8-25.6-7.7c-11.1,4.9-20.4,14.3-26,29.4c-2.6,7.2-4.4,14.5-5.4,21.9
	c-2.8,21,1.1,42.3,10.5,61.3c9.9,19.9,22.4,38.3,37,54.8c10.8,12.2,24.1,22,38.8,29.1c0,0,0.1,0,0.1,0
	c65.8,31.5,108.5,9.9,133.1-14.8C244.2,438.9,241.4,433.4,237,434.2z"/>
<path class="st18" d="M89.8,278.2c7,3.4,14.8,3.4,22.1,0.7c8.5-3.1,18.1,0.1,23.4,7.5c7.1,9.9,10,21.3,6.1,32.4
	c-10.6,30.1,7.1,67.6,37.7,82.2c27,12.9,57.5,9.6,80.6-6.1c5-3.4,11.4,2.1,8.6,7.5c-0.1,0.1-8.4,20.9-27.3,39.7
	c-42.3,22.5-98.6,3.6-127.4-31.7C50.6,333.3,85,276,89.8,278.2z"/>
<path class="st19" d="M472,276c3.9,22.5-1.6,64.4-33.9,96.7c-43.9,43.9-115,43.9-158.9,0c-40.7-40.7-43.6-104.7-9-148.8l39.7-39.7
	c31-31,80.9-31.6,112.6-1.7l26.7-26.7c12.4-12.4,12.4-32.5,0-44.8c-9.1-9.1-23.9-9.1-33,0c-6.5,6.5-6.5,17,0,23.5
	c4.4,4.4,11.5,4.4,15.9,0c4-4,10.5-4,14.5,0c4,4,4,10.5,0,14.5c-12.4,12.4-32.5,12.4-44.8,0c-14.4-14.4-14.4-37.9,0-52.4
	c17.1-17.1,44.8-17.1,61.9,0c20.3,20.3,20.3,53.4,0,73.7L353.8,280.1c-31.8,31.8,14,80.8,47.6,51c9.3-8.3,33.2-34,48.2-55.1
	c-13.9-2.9-24.4-15.2-24.4-30c0-5.6,4.6-10.2,10.2-10.2c10.7,0,20.1,5.4,25.5,13.7c5.5-8.3,14.9-13.7,25.6-13.7
	c5.6,0,10.2,4.6,10.2,10.2C496.8,260.9,486.1,273.3,472,276z"/>
<path class="st20" d="M449.3,359.7c-3.3,4.4-7.1,8.8-11.2,13c-43.9,43.9-115,43.9-158.9,0c-40.7-40.7-43.6-104.7-9-148.8
	c3.5-3.5,9.3,0.3,7.5,4.9c-15.6,40.2-7.1,87.6,25.3,120.1C342.9,388.8,405.3,392.4,449.3,359.7z"/>
<path class="st21" d="M294.5,385.6c-5.4-3.8-25.6-16.7-37.1-43.3c12.6,12.9,74.4,13.9,95.9-13.4c7.7,7.4,18.5,12.1,29.7,11.1
	C379,346.2,347.7,387.1,294.5,385.6z M428.4,302.6c-9.1,10.6-18.1,20-24,25.7c5.8,29.9-22.1,60.7-41.4,77.3
	c23.3,1,47.7-8.3,64.7-23.7C438,357.3,438.2,325.5,428.4,302.6z M346.3,318.5c-4.3-9.3-4.6-20.4,1.4-30.6
	c-13.1,0.3-70.2-26.3-70-71.5c0,0-17.9,14.6-24.3,37.2C267.4,291.4,303.7,318.4,346.3,318.5z M379.5,254.5
	c-25.5-25.5-28.2-65.3-8.1-93.9c-12.9-0.7-26,1.7-37.9,7.2c-13,36.6-4.8,79.1,24.4,108.3L379.5,254.5z"/>
</svg>
