<?xml version="1.0" encoding="utf-8"?>
<!-- Generator: Adobe Illustrator 24.2.1, SVG Export Plug-In . SVG Version: 6.00 Build 0)  -->
<svg version="1.1" id="Layer_1" xmlns="http://www.w3.org/2000/svg" xmlns:xlink="http://www.w3.org/1999/xlink" x="0px" y="0px"
	 viewBox="0 0 511.4 535.7" style="enable-background:new 0 0 511.4 535.7;" xml:space="preserve">
<style type="text/css">
	.st0{fill:#FFF4DB;}
	.st1{fill:#FFECBF;}
	.st2{fill:#F0A346;}
	.st3{fill:#5974AD;}
	.st4{fill:#4C6BAD;}
	.st5{stroke:#000000;stroke-width:7;stroke-linecap:round;stroke-linejoin:round;stroke-miterlimit:10;}
</style>
<g>
	<g>
		<path class="st0" d="M45.4,238.9c-14.7-23.5-24.9-58.1-3.8-80.6c21.1-22.4,53.1-11.8,78.4-4.1c22.7,6.9,51.3,10.3,66.8-7.7
			c15-17.5,9-46.3,27.1-61.7c21.8-18.6,61,1.1,80.3,14.1c61.1,41.1,114.6,91.9,159.2,155.1c16.8,23.7,41.1,67.9,21.9,86.3
			c-13.5,12.9-37.5,2.9-72-10.5c-14.3-5.5-35.9-10.6-48.6-2.1c-14.4,9.6-17,28.3-16.6,43.4c0.6,25.5,0.2,62.7-39.4,63.2
			C215.3,435.5,67.6,274.5,45.4,238.9L45.4,238.9z"/>
		<g>
			<path class="st1" d="M453.4,254.1c-44.6-63.1-98.2-114-159.2-155.1c-17.9-12-52.8-29.8-75.1-17.6c13.5,4.5,26.3,11.7,35.1,17.6
				c61.1,41.1,114.6,91.9,159.2,155.1c16.8,23.7,41.1,67.9,21.9,86.3c-0.4,0.4-0.7,0.7-1.1,1c18.4,6,32.1,7.6,41.1-1
				C494.5,321.9,470.2,277.8,453.4,254.1L453.4,254.1z"/>
			<path class="st1" d="M314.7,327.7c-14.4,9.6-17,28.3-16.6,43.4c0.5,21.2,0.3,50.4-22.4,60c8.1,2.2,15.8,3.3,23.1,3.2
				c39.6-0.5,40-37.8,39.4-63.2c-0.4-15.1,2.3-33.8,16.6-43.4c0.3-0.2,0.6-0.4,0.9-0.6C342,323,325.3,320.6,314.7,327.7L314.7,327.7
				z"/>
		</g>
		<g>
			<g>
				<path class="st2" d="M399.7,148.9l-37.3-37.5l95.8-96.3c10.3-10.4,27-10.4,37.3,0c10.3,10.4,10.3,27.2,0,37.5L399.7,148.9z"/>
				<path class="st2" d="M112.3,362.8l37.3,37.5l-95.8,96.3c-10.3,10.4-27,10.4-37.3,0c-10.3-10.4-10.3-27.2,0-37.5L112.3,362.8z"/>
			</g>
			<path class="st3" d="M112.9,449.6l-49.7-50c-11.3-11.4-11.3-29.9,0-41.3L358,62c11.4-11.4,29.8-11.4,41.1,0l49.7,50
				c11.3,11.4,11.3,29.9,0,41.3L154,449.6C142.6,461.1,124.2,461.1,112.9,449.6L112.9,449.6z"/>
			<path class="st4" d="M448.8,112l-49.7-50c-11.4-11.4-29.8-11.4-41.1,0l-3.4,3.5l46.3,46.5c11.3,11.4,11.3,29.9,0,41.3
				L109.4,446.2l3.4,3.5c11.4,11.4,29.8,11.4,41.1,0l294.8-296.4C460.1,141.9,460.1,123.4,448.8,112L448.8,112z"/>
		</g>
	</g>
	<g>
		<path d="M500.8,9.8c-13-13-35-13.1-48,0l-47.5,47.8c-14.4-14.4-37.9-15.6-52.6-0.9l-43.3,43.6c-23.3-16.3-51.7-35.2-81.7-29.7
			c-31.8,5.8-31.2,38.1-41.1,62c-10,24.1-39.7,20.8-56.5,16.7c-25.9-6.4-53.8-19.4-79.9-6.4c-29.7,14.7-32.5,49.7-22.1,77.7
			c3.3,8.9,17.4,3.9,14.1-5.2c-7.5-20.2-7.2-48.2,14.7-59.1c22.1-11,47.9,2.2,69.7,7.6c36.6,9,63.5-0.3,73.9-25.5
			c7.2-17.4,6.5-48.7,29.9-53c24.6-4.5,49.4,12.6,68.3,25.8L109,301.6c-17.1-17.5-31.1-33-43.6-48.4c-6.1-7.5-17.8,1.9-11.6,9.5
			c12.8,15.8,27.1,31.6,44.6,49.5l-40.6,40.8c-14.7,14.8-13.3,38.5,0.9,52.8l-47.6,47.9c-30.5,30.6,16.7,79.5,48,48.1l47.5-47.8
			c14.4,14.4,37.9,15.6,52.6,0.9l48.6-48.9c35.6,23.8,65.9,35.8,89.9,35.8c0.3,0,0.6,0,0.9,0c13.8-0.2,24.7-4.4,32.6-12.5
			c15.2-15.8,14.6-42.5,14.2-58.4c-0.4-18.4,4.1-30.8,13.3-37c12.6-8.4,33.1-0.8,45.5,4.3c34.7,13.5,59.7,23.2,76.1,7.5
			c26-24.9-9.5-79.8-20.9-96C446.3,231,432,212.9,416.9,196l37.2-37.4c14.7-14.8,13.3-38.5-0.9-52.8l47.6-47.9
			C514,44.6,514,23,500.8,9.8L500.8,9.8z M48.5,491.3c-17.3,17.4-43.9-9.7-26.7-26.9l47.6-47.8l26.7,26.9L48.5,491.3z M443.5,148
			L382,209.8c-6.8,6.9,3.8,17.5,10.6,10.6l13.7-13.8c14.5,16.4,28.3,33.7,41,51.8c4.9,6.9,17,25.1,23.5,43.3
			c3.9,11.1,7,25.9-0.7,33.2c-9.5,9.1-30.8,0.9-60.3-10.6c-17.6-7.1-42-14.4-59.3-2.8c-13.8,9.2-20.5,26-20,49.8
			c0.4,17.6,0,37.2-10,47.6c-5,5.2-12.2,7.8-22,7.9c-20.6,0.3-47.4-10.4-79.8-31.7l145.9-146.7c6.8-6.9-3.8-17.5-10.6-10.6
			L148.7,444.4c-8.3,8.4-22.2,8.4-30.5,0l-49.7-50c-8.4-8.5-8.4-22.3,0-30.7L363.3,67.3c8.3-8.4,22.2-8.4,30.5,0l49.7,50
			C451.9,125.7,451.9,139.5,443.5,148L443.5,148z M490.1,47.3l-47.6,47.8l-26.7-26.9l47.6-47.9C480.8,3,507.3,30,490.1,47.3
			L490.1,47.3z"/>
		<path d="M394.3,143.6L275.5,263c-6.8,6.9,3.8,17.5,10.6,10.6L405,154.2C411.8,147.3,401.2,136.7,394.3,143.6z"/>
	</g>
</g>
<g>
	<g>
		
			<rect x="329.4" y="352.8" transform="matrix(1.003672e-02 -0.9999 0.9999 1.003672e-02 -170.3312 821.8613)" class="st5" width="1" height="288.4"/>
	</g>
	<g>
		<polygon class="st5" points="428.9,528.9 428.4,528.1 473.2,498.2 427.6,462.3 428.2,461.5 474.9,498.3 		"/>
	</g>
	<g>
		<polygon class="st5" points="184.1,495.6 230.1,464.9 230.6,465.7 185.8,495.6 229.5,530 229,530.9 		"/>
	</g>
</g>
</svg>
